<mxfile host="app.diagrams.net" modified="2023-11-09T14:07:16.412Z" agent="Mozilla/5.0 (Windows NT 10.0; Win64; x64) AppleWebKit/537.36 (KHTML, like Gecko) Chrome/119.0.0.0 Safari/537.36 Edg/119.0.0.0" etag="6_Di7YzR23AGjF_pTUI1" version="22.1.0" type="device">
  <diagram id="C5RBs43oDa-KdzZeNtuy" name="Page-1">
    <mxGraphModel dx="2026" dy="1153" grid="1" gridSize="10" guides="1" tooltips="1" connect="1" arrows="1" fold="1" page="1" pageScale="1" pageWidth="827" pageHeight="1169" math="0" shadow="0">
      <root>
        <mxCell id="WIyWlLk6GJQsqaUBKTNV-0" />
        <mxCell id="WIyWlLk6GJQsqaUBKTNV-1" parent="WIyWlLk6GJQsqaUBKTNV-0" />
        <mxCell id="WIyWlLk6GJQsqaUBKTNV-2" value="" style="rounded=0;html=1;jettySize=auto;orthogonalLoop=1;fontSize=11;endArrow=block;endFill=0;endSize=8;strokeWidth=1;shadow=0;labelBackgroundColor=none;edgeStyle=orthogonalEdgeStyle;" parent="WIyWlLk6GJQsqaUBKTNV-1" source="NW7b9BkIOjnyMh4XXsZ--6" target="WIyWlLk6GJQsqaUBKTNV-6" edge="1">
          <mxGeometry relative="1" as="geometry" />
        </mxCell>
        <mxCell id="WIyWlLk6GJQsqaUBKTNV-3" value="Open AliExpress App" style="rounded=1;whiteSpace=wrap;html=1;fontSize=12;glass=0;strokeWidth=1;shadow=0;fillColor=#fff2cc;gradientColor=#ffd966;strokeColor=#d6b656;" parent="WIyWlLk6GJQsqaUBKTNV-1" vertex="1">
          <mxGeometry x="160" y="80" width="120" height="40" as="geometry" />
        </mxCell>
        <mxCell id="WIyWlLk6GJQsqaUBKTNV-6" value="Do you find something ?" style="rhombus;whiteSpace=wrap;html=1;shadow=0;fontFamily=Helvetica;fontSize=12;align=center;strokeWidth=1;spacing=6;spacingTop=-4;fillColor=#dae8fc;gradientColor=#7ea6e0;strokeColor=#6c8ebf;" parent="WIyWlLk6GJQsqaUBKTNV-1" vertex="1">
          <mxGeometry x="170" y="400" width="100" height="80" as="geometry" />
        </mxCell>
        <mxCell id="WIyWlLk6GJQsqaUBKTNV-8" value="No" style="rounded=0;html=1;jettySize=auto;orthogonalLoop=1;fontSize=11;endArrow=block;endFill=0;endSize=8;strokeWidth=1;shadow=0;labelBackgroundColor=none;edgeStyle=orthogonalEdgeStyle;exitX=0.5;exitY=1;exitDx=0;exitDy=0;" parent="WIyWlLk6GJQsqaUBKTNV-1" source="WIyWlLk6GJQsqaUBKTNV-6" edge="1">
          <mxGeometry x="0.3867" y="10" relative="1" as="geometry">
            <mxPoint as="offset" />
            <mxPoint x="170" y="580" as="sourcePoint" />
            <Array as="points">
              <mxPoint x="220" y="520" />
              <mxPoint x="120" y="520" />
              <mxPoint x="120" y="330" />
            </Array>
            <mxPoint x="150" y="330" as="targetPoint" />
          </mxGeometry>
        </mxCell>
        <mxCell id="WIyWlLk6GJQsqaUBKTNV-9" value="Yes" style="edgeStyle=orthogonalEdgeStyle;rounded=0;html=1;jettySize=auto;orthogonalLoop=1;fontSize=11;endArrow=block;endFill=0;endSize=8;strokeWidth=1;shadow=0;labelBackgroundColor=none;exitX=1;exitY=0.5;exitDx=0;exitDy=0;" parent="WIyWlLk6GJQsqaUBKTNV-1" source="WIyWlLk6GJQsqaUBKTNV-6" edge="1">
          <mxGeometry y="10" relative="1" as="geometry">
            <mxPoint as="offset" />
            <mxPoint x="270" y="580" as="sourcePoint" />
            <mxPoint x="390" y="440" as="targetPoint" />
            <Array as="points">
              <mxPoint x="350" y="440" />
              <mxPoint x="350" y="440" />
            </Array>
          </mxGeometry>
        </mxCell>
        <mxCell id="NW7b9BkIOjnyMh4XXsZ--3" value="" style="edgeStyle=orthogonalEdgeStyle;rounded=0;orthogonalLoop=1;jettySize=auto;html=1;" parent="WIyWlLk6GJQsqaUBKTNV-1" source="NW7b9BkIOjnyMh4XXsZ--1" target="WIyWlLk6GJQsqaUBKTNV-3" edge="1">
          <mxGeometry relative="1" as="geometry" />
        </mxCell>
        <mxCell id="NW7b9BkIOjnyMh4XXsZ--1" value="" style="ellipse;whiteSpace=wrap;html=1;fillColor=#f8cecc;strokeColor=#b85450;gradientColor=#ea6b66;" parent="WIyWlLk6GJQsqaUBKTNV-1" vertex="1">
          <mxGeometry x="175" width="90" height="40" as="geometry" />
        </mxCell>
        <mxCell id="NW7b9BkIOjnyMh4XXsZ--4" value="Start" style="text;html=1;fillColor=none;align=center;verticalAlign=middle;whiteSpace=wrap;rounded=0;" parent="WIyWlLk6GJQsqaUBKTNV-1" vertex="1">
          <mxGeometry x="190" y="5" width="60" height="30" as="geometry" />
        </mxCell>
        <mxCell id="NW7b9BkIOjnyMh4XXsZ--5" value="" style="rounded=0;html=1;jettySize=auto;orthogonalLoop=1;fontSize=11;endArrow=block;endFill=0;endSize=8;strokeWidth=1;shadow=0;labelBackgroundColor=none;edgeStyle=orthogonalEdgeStyle;" parent="WIyWlLk6GJQsqaUBKTNV-1" source="WIyWlLk6GJQsqaUBKTNV-7" target="NW7b9BkIOjnyMh4XXsZ--6" edge="1">
          <mxGeometry relative="1" as="geometry">
            <mxPoint x="220" y="120" as="sourcePoint" />
            <mxPoint x="220" y="480" as="targetPoint" />
          </mxGeometry>
        </mxCell>
        <mxCell id="NW7b9BkIOjnyMh4XXsZ--6" value="scroll trough options" style="rounded=1;whiteSpace=wrap;html=1;fillColor=#fff2cc;gradientColor=#ffd966;strokeColor=#d6b656;" parent="WIyWlLk6GJQsqaUBKTNV-1" vertex="1">
          <mxGeometry x="155" y="310" width="130" height="40" as="geometry" />
        </mxCell>
        <mxCell id="NW7b9BkIOjnyMh4XXsZ--7" value="" style="rounded=0;html=1;jettySize=auto;orthogonalLoop=1;fontSize=11;endArrow=block;endFill=0;endSize=8;strokeWidth=1;shadow=0;labelBackgroundColor=none;edgeStyle=orthogonalEdgeStyle;" parent="WIyWlLk6GJQsqaUBKTNV-1" source="WIyWlLk6GJQsqaUBKTNV-3" target="WIyWlLk6GJQsqaUBKTNV-7" edge="1">
          <mxGeometry relative="1" as="geometry">
            <mxPoint x="280" y="100" as="sourcePoint" />
            <mxPoint x="414" y="280" as="targetPoint" />
          </mxGeometry>
        </mxCell>
        <mxCell id="WIyWlLk6GJQsqaUBKTNV-7" value="browse in the search bar" style="rounded=1;whiteSpace=wrap;html=1;fontSize=12;glass=0;strokeWidth=1;shadow=0;fillColor=#fff2cc;gradientColor=#ffd966;strokeColor=#d6b656;" parent="WIyWlLk6GJQsqaUBKTNV-1" vertex="1">
          <mxGeometry x="160" y="210" width="120" height="40" as="geometry" />
        </mxCell>
        <mxCell id="NW7b9BkIOjnyMh4XXsZ--8" value="Do you like it?" style="rhombus;whiteSpace=wrap;html=1;fillColor=#dae8fc;gradientColor=#7ea6e0;strokeColor=#6c8ebf;" parent="WIyWlLk6GJQsqaUBKTNV-1" vertex="1">
          <mxGeometry x="390" y="400" width="80" height="80" as="geometry" />
        </mxCell>
        <mxCell id="NW7b9BkIOjnyMh4XXsZ--9" value="" style="endArrow=classic;html=1;rounded=0;exitX=1;exitY=0.5;exitDx=0;exitDy=0;" parent="WIyWlLk6GJQsqaUBKTNV-1" source="NW7b9BkIOjnyMh4XXsZ--8" edge="1">
          <mxGeometry width="50" height="50" relative="1" as="geometry">
            <mxPoint x="530" y="530" as="sourcePoint" />
            <mxPoint x="550" y="440" as="targetPoint" />
          </mxGeometry>
        </mxCell>
        <mxCell id="NW7b9BkIOjnyMh4XXsZ--10" value="" style="endArrow=classic;html=1;rounded=0;exitX=0.5;exitY=0;exitDx=0;exitDy=0;entryX=1;entryY=0.75;entryDx=0;entryDy=0;" parent="WIyWlLk6GJQsqaUBKTNV-1" source="NW7b9BkIOjnyMh4XXsZ--8" target="NW7b9BkIOjnyMh4XXsZ--6" edge="1">
          <mxGeometry width="50" height="50" relative="1" as="geometry">
            <mxPoint x="530" y="530" as="sourcePoint" />
            <mxPoint x="430" y="540" as="targetPoint" />
            <Array as="points">
              <mxPoint x="430" y="340" />
            </Array>
          </mxGeometry>
        </mxCell>
        <mxCell id="NW7b9BkIOjnyMh4XXsZ--11" value="no" style="text;html=1;strokeColor=none;fillColor=none;align=center;verticalAlign=middle;whiteSpace=wrap;rounded=0;" parent="WIyWlLk6GJQsqaUBKTNV-1" vertex="1">
          <mxGeometry x="420" y="360" width="60" height="20" as="geometry" />
        </mxCell>
        <mxCell id="NW7b9BkIOjnyMh4XXsZ--12" value="Yes" style="text;html=1;strokeColor=none;fillColor=none;align=center;verticalAlign=middle;whiteSpace=wrap;rounded=0;" parent="WIyWlLk6GJQsqaUBKTNV-1" vertex="1">
          <mxGeometry x="480" y="420" width="60" height="20" as="geometry" />
        </mxCell>
        <mxCell id="sMHHCr3Cvqf1XRe892u7-4" style="edgeStyle=orthogonalEdgeStyle;rounded=0;orthogonalLoop=1;jettySize=auto;html=1;exitX=1;exitY=0.5;exitDx=0;exitDy=0;" edge="1" parent="WIyWlLk6GJQsqaUBKTNV-1" source="sMHHCr3Cvqf1XRe892u7-2">
          <mxGeometry relative="1" as="geometry">
            <mxPoint x="680" y="435" as="targetPoint" />
          </mxGeometry>
        </mxCell>
        <mxCell id="sMHHCr3Cvqf1XRe892u7-2" value="put in the cart" style="rounded=1;whiteSpace=wrap;html=1;fillColor=#fff2cc;gradientColor=#ffd966;strokeColor=#d6b656;" vertex="1" parent="WIyWlLk6GJQsqaUBKTNV-1">
          <mxGeometry x="550" y="410" width="100" height="50" as="geometry" />
        </mxCell>
        <mxCell id="sMHHCr3Cvqf1XRe892u7-11" style="edgeStyle=orthogonalEdgeStyle;rounded=0;orthogonalLoop=1;jettySize=auto;html=1;exitX=1;exitY=0.5;exitDx=0;exitDy=0;" edge="1" parent="WIyWlLk6GJQsqaUBKTNV-1" source="sMHHCr3Cvqf1XRe892u7-8" target="sMHHCr3Cvqf1XRe892u7-12">
          <mxGeometry relative="1" as="geometry">
            <mxPoint x="810" y="435" as="targetPoint" />
          </mxGeometry>
        </mxCell>
        <mxCell id="sMHHCr3Cvqf1XRe892u7-30" style="edgeStyle=orthogonalEdgeStyle;rounded=0;orthogonalLoop=1;jettySize=auto;html=1;exitX=0.5;exitY=1;exitDx=0;exitDy=0;" edge="1" parent="WIyWlLk6GJQsqaUBKTNV-1" source="sMHHCr3Cvqf1XRe892u7-8" target="sMHHCr3Cvqf1XRe892u7-9">
          <mxGeometry relative="1" as="geometry" />
        </mxCell>
        <mxCell id="sMHHCr3Cvqf1XRe892u7-8" value="Payment" style="rhombus;whiteSpace=wrap;html=1;fillColor=#dae8fc;gradientColor=#7ea6e0;strokeColor=#6c8ebf;" vertex="1" parent="WIyWlLk6GJQsqaUBKTNV-1">
          <mxGeometry x="680" y="395" width="80" height="80" as="geometry" />
        </mxCell>
        <mxCell id="sMHHCr3Cvqf1XRe892u7-31" style="edgeStyle=orthogonalEdgeStyle;rounded=0;orthogonalLoop=1;jettySize=auto;html=1;exitX=0.5;exitY=1;exitDx=0;exitDy=0;entryX=0;entryY=0.5;entryDx=0;entryDy=0;" edge="1" parent="WIyWlLk6GJQsqaUBKTNV-1" source="sMHHCr3Cvqf1XRe892u7-9" target="sMHHCr3Cvqf1XRe892u7-33">
          <mxGeometry relative="1" as="geometry">
            <mxPoint x="930" y="830" as="targetPoint" />
          </mxGeometry>
        </mxCell>
        <mxCell id="sMHHCr3Cvqf1XRe892u7-9" value="Card" style="rounded=1;whiteSpace=wrap;html=1;fillColor=#fff2cc;gradientColor=#ffd966;strokeColor=#d6b656;" vertex="1" parent="WIyWlLk6GJQsqaUBKTNV-1">
          <mxGeometry x="660" y="540" width="120" height="60" as="geometry" />
        </mxCell>
        <mxCell id="sMHHCr3Cvqf1XRe892u7-19" style="edgeStyle=orthogonalEdgeStyle;rounded=0;orthogonalLoop=1;jettySize=auto;html=1;exitX=1;exitY=0.5;exitDx=0;exitDy=0;" edge="1" parent="WIyWlLk6GJQsqaUBKTNV-1" source="sMHHCr3Cvqf1XRe892u7-12">
          <mxGeometry relative="1" as="geometry">
            <mxPoint x="940" y="435" as="targetPoint" />
          </mxGeometry>
        </mxCell>
        <mxCell id="sMHHCr3Cvqf1XRe892u7-12" value="PayPal" style="rounded=1;whiteSpace=wrap;html=1;fillColor=#fff2cc;gradientColor=#ffd966;strokeColor=#d6b656;" vertex="1" parent="WIyWlLk6GJQsqaUBKTNV-1">
          <mxGeometry x="790" y="407.5" width="100" height="55" as="geometry" />
        </mxCell>
        <mxCell id="sMHHCr3Cvqf1XRe892u7-23" style="edgeStyle=orthogonalEdgeStyle;rounded=0;orthogonalLoop=1;jettySize=auto;html=1;exitX=1;exitY=0.5;exitDx=0;exitDy=0;" edge="1" parent="WIyWlLk6GJQsqaUBKTNV-1" source="sMHHCr3Cvqf1XRe892u7-21">
          <mxGeometry relative="1" as="geometry">
            <mxPoint x="1100" y="465" as="targetPoint" />
          </mxGeometry>
        </mxCell>
        <mxCell id="sMHHCr3Cvqf1XRe892u7-21" value="Click Pay" style="rounded=1;whiteSpace=wrap;html=1;fillColor=#fff2cc;gradientColor=#ffd966;strokeColor=#d6b656;" vertex="1" parent="WIyWlLk6GJQsqaUBKTNV-1">
          <mxGeometry x="940" y="415" width="120" height="40" as="geometry" />
        </mxCell>
        <mxCell id="sMHHCr3Cvqf1XRe892u7-25" value="End" style="ellipse;whiteSpace=wrap;html=1;fillColor=#f8cecc;strokeColor=#b85450;gradientColor=#ea6b66;" vertex="1" parent="WIyWlLk6GJQsqaUBKTNV-1">
          <mxGeometry x="1050" y="462.5" width="110" height="47.5" as="geometry" />
        </mxCell>
        <mxCell id="sMHHCr3Cvqf1XRe892u7-35" style="edgeStyle=orthogonalEdgeStyle;rounded=0;orthogonalLoop=1;jettySize=auto;html=1;exitX=1;exitY=0.5;exitDx=0;exitDy=0;" edge="1" parent="WIyWlLk6GJQsqaUBKTNV-1" source="sMHHCr3Cvqf1XRe892u7-33" target="sMHHCr3Cvqf1XRe892u7-36">
          <mxGeometry relative="1" as="geometry">
            <mxPoint x="830" y="740" as="targetPoint" />
          </mxGeometry>
        </mxCell>
        <mxCell id="sMHHCr3Cvqf1XRe892u7-40" style="edgeStyle=orthogonalEdgeStyle;rounded=0;orthogonalLoop=1;jettySize=auto;html=1;exitX=0.5;exitY=0;exitDx=0;exitDy=0;" edge="1" parent="WIyWlLk6GJQsqaUBKTNV-1" source="sMHHCr3Cvqf1XRe892u7-33" target="sMHHCr3Cvqf1XRe892u7-41">
          <mxGeometry relative="1" as="geometry">
            <mxPoint x="930" y="580" as="targetPoint" />
          </mxGeometry>
        </mxCell>
        <mxCell id="sMHHCr3Cvqf1XRe892u7-33" value="Type in details" style="rhombus;whiteSpace=wrap;html=1;fillColor=#dae8fc;gradientColor=#7ea6e0;strokeColor=#6c8ebf;" vertex="1" parent="WIyWlLk6GJQsqaUBKTNV-1">
          <mxGeometry x="850" y="770" width="140" height="140" as="geometry" />
        </mxCell>
        <mxCell id="sMHHCr3Cvqf1XRe892u7-38" style="edgeStyle=orthogonalEdgeStyle;rounded=0;orthogonalLoop=1;jettySize=auto;html=1;exitX=1;exitY=0.5;exitDx=0;exitDy=0;entryX=0.5;entryY=1;entryDx=0;entryDy=0;" edge="1" parent="WIyWlLk6GJQsqaUBKTNV-1" source="sMHHCr3Cvqf1XRe892u7-36" target="sMHHCr3Cvqf1XRe892u7-25">
          <mxGeometry relative="1" as="geometry" />
        </mxCell>
        <mxCell id="sMHHCr3Cvqf1XRe892u7-36" value="succed" style="rounded=1;whiteSpace=wrap;html=1;fillColor=#fff2cc;gradientColor=#ffd966;strokeColor=#d6b656;" vertex="1" parent="WIyWlLk6GJQsqaUBKTNV-1">
          <mxGeometry x="1190" y="570" width="120" height="60" as="geometry" />
        </mxCell>
        <mxCell id="sMHHCr3Cvqf1XRe892u7-43" style="edgeStyle=orthogonalEdgeStyle;rounded=0;orthogonalLoop=1;jettySize=auto;html=1;exitX=0.5;exitY=0;exitDx=0;exitDy=0;" edge="1" parent="WIyWlLk6GJQsqaUBKTNV-1" source="sMHHCr3Cvqf1XRe892u7-41" target="sMHHCr3Cvqf1XRe892u7-12">
          <mxGeometry relative="1" as="geometry" />
        </mxCell>
        <mxCell id="sMHHCr3Cvqf1XRe892u7-41" value="failed" style="rounded=1;whiteSpace=wrap;html=1;fillColor=#fff2cc;gradientColor=#ffd966;strokeColor=#d6b656;" vertex="1" parent="WIyWlLk6GJQsqaUBKTNV-1">
          <mxGeometry x="860" y="650" width="120" height="60" as="geometry" />
        </mxCell>
      </root>
    </mxGraphModel>
  </diagram>
</mxfile>
